<?xml version="1.0" encoding="UTF-8"?>
<svg version="1.1" xmlns="http://www.w3.org/2000/svg" width="500" height="500">
<path d="M0 0 C3.68077335 0.00228344 7.36154212 -0.0012398 11.04231453 -0.00397992 C18.22955845 -0.0084035 25.41679188 -0.00747696 32.6040362 -0.00456728 C38.44177134 -0.00230224 44.27950355 -0.00200548 50.117239 -0.0030911 C50.95030166 -0.00324433 51.78336432 -0.00339756 52.64167131 -0.00355544 C54.33421957 -0.00387518 56.02676782 -0.00419939 57.71931608 -0.00452803 C73.5479706 -0.00737217 89.3766193 -0.00411127 105.20527287 0.00127234 C118.79475006 0.00575097 132.38421872 0.00495369 145.97369576 0.00035357 C161.77022588 -0.00499116 177.56675094 -0.00710972 193.36328185 -0.00403416 C195.04507168 -0.00371561 196.72686152 -0.00340124 198.40865135 -0.0030911 C199.23608302 -0.00293682 200.06351468 -0.00278255 200.91602003 -0.0026236 C206.75568489 -0.001759 212.59534654 -0.00321985 218.43501091 -0.00557065 C225.53752424 -0.0083672 232.64002651 -0.007633 239.74253856 -0.00228991 C243.36799994 0.0003473 246.99344284 0.00135169 250.61890411 -0.00193906 C254.53921104 -0.00544389 258.45948735 -0.00127418 262.37979317 0.00374103 C264.11683937 0.00039494 264.11683937 0.00039494 265.88897741 -0.00301874 C267.45084136 0.00089288 267.45084136 0.00089288 269.04425812 0.00488353 C269.95011386 0.00504588 270.85596961 0.00520823 271.78927553 0.0053755 C273.82623482 0.13072467 273.82623482 0.13072467 274.82623482 1.13072467 C274.9242187 2.65925957 274.95255312 4.19231431 274.95321846 5.72398639 C274.95603828 6.71678607 274.95885811 7.70958575 274.96176338 8.73247027 C274.95872704 10.37980151 274.95872704 10.37980151 274.95562935 12.06041217 C274.95825783 13.78460376 274.95825783 13.78460376 274.96093941 15.5436275 C274.96536072 19.36434166 274.96241894 23.18500999 274.95904732 27.00572467 C274.95972028 29.64748908 274.96069023 32.28925344 274.96194649 34.93101764 C274.96376803 40.47610738 274.96136229 46.02118382 274.95660591 51.56627154 C274.95116332 57.98567211 274.95292599 64.40504092 274.95843232 70.82444072 C274.96350908 76.9887345 274.96298193 83.15301415 274.96005058 89.31730914 C274.95938103 91.94568646 274.9602107 94.57406459 274.96253014 97.20244098 C274.96505501 100.8686619 274.96121839 104.53482089 274.95562935 108.20103717 C274.95765358 109.29925799 274.95967781 110.39747882 274.96176338 111.52897906 C274.95753365 113.01817859 274.95753365 113.01817859 274.95321846 114.53746295 C274.95284143 115.40541492 274.95246441 116.27336688 274.95207596 117.16762042 C274.82623482 119.13072467 274.82623482 119.13072467 273.82623482 120.13072467 C271.64817763 120.22501809 269.46702202 120.24815005 267.28692818 120.24425006 C266.60403221 120.24439609 265.92113625 120.24454211 265.21754646 120.24469256 C262.95035867 120.24399343 260.68325208 120.23620107 258.41607857 120.22838092 C256.84809095 120.22651674 255.28010274 120.22509284 253.71211433 120.2240932 C249.57746979 120.22026801 245.44286016 120.21043773 241.30822945 120.19938922 C237.09223083 120.18917511 232.8762266 120.18459558 228.66021919 120.17955279 C220.38220835 120.16881545 212.10422592 120.15173903 203.82623482 120.13072467 C203.83783638 120.91318561 203.84943794 121.69564654 203.86139107 122.50181842 C203.87041451 123.51373248 203.87943794 124.52564654 203.88873482 125.56822467 C203.90033638 126.57756061 203.91193794 127.58689654 203.92389107 128.62681842 C203.82623482 131.13072467 203.82623482 131.13072467 202.82623482 132.13072467 C200.56066095 132.22780077 198.2919918 132.25259088 196.02433968 132.25097919 C194.94500022 132.25226082 194.94500022 132.25226082 193.84385592 132.25356835 C191.41469902 132.25522527 188.98561004 132.24969835 186.55645943 132.24425006 C184.82234384 132.24396821 183.08822814 132.24412588 181.35411263 132.24469256 C176.63117161 132.24498062 171.90825576 132.23908266 167.18532062 132.23211861 C162.25520691 132.22588633 157.3250927 132.22528137 152.39497566 132.2240932 C143.0522712 132.22097951 133.70957837 132.21276561 124.36687905 132.20274371 C113.73344427 132.19158374 103.10000895 132.18607242 92.46656978 132.18104827 C70.58645162 132.17058303 48.70634395 132.15298286 26.82623482 132.13072467 C26.82623482 128.17072467 26.82623482 124.21072467 26.82623482 120.13072467 C3.72623482 120.13072467 -19.37376518 120.13072467 -43.17376518 120.13072467 C-43.21387399 92.17042803 -43.21387399 92.17042803 -43.22259331 80.25572467 C-43.22857199 72.12453308 -43.23549673 63.99335266 -43.24920464 55.86216998 C-43.2602504 49.3069654 -43.26604909 42.75176835 -43.26864243 36.1965549 C-43.27049067 33.6951161 -43.27409978 31.19367796 -43.27949524 28.69224429 C-43.28674966 25.18978961 -43.28775425 21.68738487 -43.28729057 18.18492389 C-43.29088585 17.14986209 -43.29448112 16.11480029 -43.29818535 15.04837298 C-43.29681068 14.08932559 -43.29543602 13.1302782 -43.2940197 12.14216876 C-43.29494149 11.31439866 -43.29586329 10.48662856 -43.29681301 9.63377452 C-43.15476144 6.74414892 -42.69497724 3.97423701 -42.17376518 1.13072467 C-28.14311377 -0.20467679 -14.07934451 -0.01294397 0 0 Z M-39.17376518 4.13072467 C-39.17376518 41.09072467 -39.17376518 78.05072467 -39.17376518 116.13072467 C-17.39376518 116.13072467 4.38623482 116.13072467 26.82623482 116.13072467 C26.82623482 111.51072467 26.82623482 106.89072467 26.82623482 102.13072467 C84.90623482 102.13072467 142.98623482 102.13072467 202.82623482 102.13072467 C203.15623482 106.75072467 203.48623482 111.37072467 203.82623482 116.13072467 C225.93623482 116.13072467 248.04623482 116.13072467 270.82623482 116.13072467 C270.82623482 79.17072467 270.82623482 42.21072467 270.82623482 4.13072467 C168.52623482 4.13072467 66.22623482 4.13072467 -39.17376518 4.13072467 Z M92.82623482 114.13072467 C93.82623482 118.13072467 93.82623482 118.13072467 93.82623482 118.13072467 Z M152.82623482 116.13072467 C153.82623482 118.13072467 153.82623482 118.13072467 153.82623482 118.13072467 Z " fill="#020202" transform="translate(119.17376518249512,193.8692753314972)"/>
<path d="M0 0 C14.19716882 0.70774195 28.38313211 0.59929489 42.59375 0.5234375 C47.71614319 0.49690969 52.83850209 0.47697831 57.9609375 0.4609375 C59.71517532 0.44848999 59.71517532 0.44848999 61.50485229 0.43579102 C62.57172272 0.43248779 63.63859314 0.42918457 64.73779297 0.42578125 C66.1493013 0.41792603 66.1493013 0.41792603 67.58932495 0.40991211 C69.71875 0.5234375 69.71875 0.5234375 70.71875 1.5234375 C71.19877145 8.70226582 69.80215223 14.14179485 67.53125 20.8984375 C64.63787055 30.18419374 64.63787055 30.18419374 66.5625 39.5 C68.23926352 43.88451002 69.13741091 48.37335855 70.09375 52.9609375 C70.29726074 53.83886963 70.50077148 54.71680176 70.71044922 55.62133789 C70.97365967 56.8703186 70.97365967 56.8703186 71.2421875 58.14453125 C71.40638184 58.8914624 71.57057617 59.63839355 71.73974609 60.40795898 C71.71875 62.5234375 71.71875 62.5234375 70.6315918 64.77050781 C67.94323244 67.23412239 66.19708966 66.99692179 62.58984375 66.94921875 C61.39037109 66.94083984 60.19089844 66.93246094 58.95507812 66.92382812 C57.70146484 66.89482422 56.44785156 66.86582031 55.15625 66.8359375 C53.89876953 66.82626953 52.64128906 66.81660156 51.34570312 66.80664062 C42.05526924 66.69169712 42.05526924 66.69169712 39.71875 65.5234375 C38.72875 66.0184375 38.72875 66.0184375 37.71875 66.5234375 C35.32920515 66.62654447 32.96861319 66.67025473 30.57861328 66.66870117 C29.84347504 66.67205978 29.10833679 66.6754184 28.35092163 66.67887878 C25.9136182 66.68840024 23.47638339 66.69033256 21.0390625 66.69140625 C19.34756441 66.69461826 17.65606659 66.69798229 15.96456909 66.70149231 C12.41533769 66.70748675 8.86613064 66.70933191 5.31689453 66.70874023 C0.76825185 66.70863865 -3.7802346 66.72228534 -8.32884026 66.73951244 C-11.82382932 66.75063026 -15.31878061 66.7526595 -18.81378555 66.75213051 C-20.49071923 66.75331117 -22.16765386 66.75773775 -23.84457016 66.76546288 C-26.19059944 66.77525736 -28.53628951 66.77238684 -30.88232422 66.76635742 C-31.57545715 66.77197693 -32.26859009 66.77759644 -32.98272705 66.78338623 C-36.68125443 66.75922517 -39.05021169 66.25122294 -42.28125 64.5234375 C-44.07683077 64.99381093 -45.87062645 65.47214607 -47.65429688 65.98583984 C-52.98961138 67.0776951 -58.48220449 66.85613916 -63.90966797 66.83911133 C-66.04054683 66.83592359 -68.17007056 66.85956893 -70.30078125 66.88476562 C-71.66406076 66.88703649 -73.02734398 66.8877431 -74.390625 66.88671875 C-76.23092285 66.89119019 -76.23092285 66.89119019 -78.10839844 66.89575195 C-81.57697967 66.48873546 -82.59582768 65.57398024 -85.28125 63.5234375 C-87.37356253 63.80396349 -87.37356253 63.80396349 -89.43359375 64.81640625 C-94.36226783 66.69932716 -98.6091141 66.94207367 -103.84375 66.8359375 C-104.64232422 66.83916016 -105.44089844 66.84238281 -106.26367188 66.84570312 C-110.29614994 66.80955214 -113.85543963 66.46983408 -117.74609375 65.37890625 C-119.49599609 64.95544922 -119.49599609 64.95544922 -121.28125 64.5234375 C-121.94125 65.1834375 -122.60125 65.8434375 -123.28125 66.5234375 C-125.93920898 66.75048828 -125.93920898 66.75048828 -129.27734375 66.71875 C-130.47552734 66.71230469 -131.67371094 66.70585937 -132.90820312 66.69921875 C-134.16568359 66.68246094 -135.42316406 66.66570312 -136.71875 66.6484375 C-137.97236328 66.63941406 -139.22597656 66.63039063 -140.51757812 66.62109375 C-142.84305558 66.60359956 -145.16850816 66.5820196 -147.49389648 66.55517578 C-151.31358093 66.51168283 -155.11916785 66.56805733 -158.9375 66.6640625 C-161.21873694 66.70132891 -163.49998776 66.73775295 -165.78125 66.7734375 C-166.93496094 66.80695313 -168.08867187 66.84046875 -169.27734375 66.875 C-170.38207031 66.88789063 -171.48679687 66.90078125 -172.625 66.9140625 C-174.14383789 66.9454834 -174.14383789 66.9454834 -175.69335938 66.97753906 C-178.28125 66.5234375 -178.28125 66.5234375 -179.92645264 64.87242126 C-181.65713073 61.87172548 -181.61489717 59.9395082 -181.54589844 56.4855957 C-181.52887878 55.26785965 -181.51185913 54.0501236 -181.49432373 52.79548645 C-181.46010315 51.48496811 -181.42588257 50.17444977 -181.390625 48.82421875 C-181.3651154 47.46471819 -181.34082029 46.10519434 -181.31768799 44.74565125 C-181.26619673 41.90168622 -181.20471186 39.05818174 -181.13525391 36.21459961 C-181.04619246 32.5627741 -180.97483145 28.91088492 -180.90996933 25.25855732 C-180.84733751 21.78031134 -180.77538905 18.30227544 -180.703125 14.82421875 C-180.67700134 13.50762772 -180.65087769 12.19103668 -180.6239624 10.83454895 C-180.57951996 9.02212959 -180.57951996 9.02212959 -180.53417969 7.1730957 C-180.50958679 6.10372269 -180.4849939 5.03434967 -180.45965576 3.93257141 C-180.28125 1.5234375 -180.28125 1.5234375 -179.28125 0.5234375 C-177.51208613 0.4245027 -175.73896848 0.3954466 -173.96704102 0.39404297 C-172.83238907 0.39089081 -171.69773712 0.38773865 -170.52870178 0.38449097 C-168.67564674 0.38752731 -168.67564674 0.38752731 -166.78515625 0.390625 C-165.52613998 0.38966827 -164.26712372 0.38871155 -162.96995544 0.38772583 C-160.30081789 0.3870437 -157.63177114 0.38840242 -154.96264648 0.39306641 C-151.5381812 0.39875793 -148.11379439 0.39548826 -144.68933201 0.38949394 C-141.42960393 0.38501423 -138.16988536 0.38814981 -134.91015625 0.390625 C-133.67681046 0.38860077 -132.44346466 0.38657654 -131.17274475 0.38449097 C-129.46603859 0.38921921 -129.46603859 0.38921921 -127.72485352 0.39404297 C-126.71971207 0.39483856 -125.71457062 0.39563416 -124.67897034 0.39645386 C-122.28125 0.5234375 -122.28125 0.5234375 -120.28125 1.5234375 C-119.29125 1.1934375 -118.30125 0.8634375 -117.28125 0.5234375 C-115.12925623 0.42818473 -112.9744123 0.39270626 -110.8203125 0.390625 C-109.54414063 0.38933594 -108.26796875 0.38804687 -106.953125 0.38671875 C-105.95635742 0.38986084 -105.95635742 0.38986084 -104.93945312 0.39306641 C-102.9204958 0.39839987 -100.90176276 0.39312342 -98.8828125 0.38671875 C-97.6040625 0.38800781 -96.3253125 0.38929688 -95.0078125 0.390625 C-93.25331787 0.39231689 -93.25331787 0.39231689 -91.46337891 0.39404297 C-88.6121403 0.50998255 -86.06707053 0.96525737 -83.28125 1.5234375 C-82.95125 1.1934375 -82.62125 0.8634375 -82.28125 0.5234375 C-77.17336545 0.2294746 -72.06255393 0.20912971 -66.94702148 0.17333984 C-65.2274817 0.15689109 -63.50800709 0.12975008 -61.78881836 0.09130859 C-41.45940085 -0.36076199 -41.45940085 -0.36076199 -33.53149414 7.18994141 C-33.11891357 7.62999512 -32.70633301 8.07004883 -32.28125 8.5234375 C-31.806875 7.3890625 -31.3325 6.2546875 -30.84375 5.0859375 C-29.28125 1.5234375 -29.28125 1.5234375 -28.28125 0.5234375 C-18.84357975 -0.50488008 -9.4671057 -0.53697753 0 0 Z M-176.28125 4.5234375 C-176.28125 23.6634375 -176.28125 42.8034375 -176.28125 62.5234375 C-169.68125 62.5234375 -163.08125 62.5234375 -156.28125 62.5234375 C-154.83736429 61.30914762 -154.83736429 61.30914762 -155.18359375 57.70703125 C-155.19026911 56.12497068 -155.20223125 54.54292591 -155.21875 52.9609375 C-155.22326172 52.15462891 -155.22777344 51.34832031 -155.23242188 50.51757812 C-155.24424482 48.51949994 -155.26218086 46.52145967 -155.28125 44.5234375 C-154.29125 44.5234375 -153.30125 44.5234375 -152.28125 44.5234375 C-152.00410156 45.73902344 -151.72695312 46.95460938 -151.44140625 48.20703125 C-151.07571102 49.79171057 -150.70981525 51.37634362 -150.34375 52.9609375 C-150.16134766 53.76337891 -149.97894531 54.56582031 -149.79101562 55.39257812 C-149.18463992 59.27296479 -149.18463992 59.27296479 -147.28125 62.5234375 C-145.64652118 62.61044092 -144.00810945 62.63044813 -142.37109375 62.62109375 C-141.38173828 62.61787109 -140.39238281 62.61464844 -139.37304688 62.61132812 C-137.81166992 62.59875977 -137.81166992 62.59875977 -136.21875 62.5859375 C-135.17396484 62.58142578 -134.12917969 62.57691406 -133.05273438 62.57226562 C-130.4621834 62.56043663 -127.87174441 62.54395439 -125.28125 62.5234375 C-125.84631161 56.53731606 -126.75800896 50.8974332 -128.28125 45.0859375 C-128.45914063 44.38017578 -128.63703125 43.67441406 -128.8203125 42.94726562 C-129.78317364 39.14015448 -129.78317364 39.14015448 -131.28125 35.5234375 C-131.17451799 29.20103643 -129.52688083 23.2228459 -127.71875 17.2109375 C-127.25428827 15.65377518 -126.79447489 14.09521706 -126.33984375 12.53515625 C-126.13673584 11.85928467 -125.93362793 11.18341309 -125.72436523 10.48706055 C-125.13449876 8.20862323 -125.13449876 8.20862323 -125.28125 4.5234375 C-132.54125 4.5234375 -139.80125 4.5234375 -147.28125 4.5234375 C-148.10625 6.7921875 -148.93125 9.0609375 -149.78125 11.3984375 C-150.04228516 12.11112793 -150.30332031 12.82381836 -150.57226562 13.55810547 C-151.85286797 16.95441738 -151.85286797 16.95441738 -152.28125 20.5234375 C-152.94125 20.1934375 -153.60125 19.8634375 -154.28125 19.5234375 C-154.28125 14.5734375 -154.28125 9.6234375 -154.28125 4.5234375 C-161.54125 4.5234375 -168.80125 4.5234375 -176.28125 4.5234375 Z M-121.28125 7.5234375 C-123.03271776 10.93400821 -123.90403072 14.43000244 -124.78125 18.1484375 C-125.17570312 19.58896484 -125.17570312 19.58896484 -125.578125 21.05859375 C-127.15418269 27.23707522 -127.51233531 32.28152418 -126.28125 38.5234375 C-126.1280127 39.35665527 -125.97477539 40.18987305 -125.81689453 41.04833984 C-125.29900059 43.68092655 -124.70683213 46.28651298 -124.09375 48.8984375 C-123.91005859 49.78660156 -123.72636719 50.67476563 -123.53710938 51.58984375 C-122.31479209 56.90978367 -122.31479209 56.90978367 -118.41796875 60.5625 C-109.29432564 63.35753886 -99.32679079 63.84013579 -90.28125 60.5234375 C-84.01600377 56.91861752 -79.87117024 52.65949035 -77.69628906 45.63378906 C-76.83269397 41.24266203 -77.05363298 36.73324607 -77.03125 32.2734375 C-77.010625 31.26152344 -76.99 30.24960937 -76.96875 29.20703125 C-76.92951821 21.64510299 -77.63525075 15.7415447 -82.59375 9.7109375 C-89.142255 4.38075901 -94.55551512 4.05514339 -102.71875 4.1484375 C-103.73001953 4.13683594 -104.74128906 4.12523437 -105.78320312 4.11328125 C-114.03492882 4.10451566 -114.03492882 4.10451566 -121.28125 7.5234375 Z M-80.28125 4.5234375 C-79.03620181 7.09045346 -77.71932795 9.41621085 -76.19140625 11.84375 C-73.12823897 17.99856589 -73.66288956 24.67546981 -73.71875 31.3984375 C-73.69490234 32.70941406 -73.67105469 34.02039063 -73.64648438 35.37109375 C-73.6576885 42.81810298 -74.40715831 47.98897828 -78.18774414 54.43017578 C-79.63130654 57.19353904 -79.68393526 59.46302952 -79.28125 62.5234375 C-56.09672361 63.8768963 -56.09672361 63.8768963 -35.46875 55.2734375 C-30.40474676 48.90726199 -28.5942333 43.31007296 -28.78125 35.2109375 C-28.79720215 33.96352783 -28.79720215 33.96352783 -28.81347656 32.69091797 C-29.07613556 24.15450061 -30.83311383 15.60310875 -37.28125 9.5234375 C-43.58512981 5.10468921 -48.98930724 4.39466407 -56.55078125 4.42578125 C-57.23178391 4.4271962 -57.91278656 4.42861115 -58.61442566 4.43006897 C-60.77424647 4.43563452 -62.93396089 4.44818047 -65.09375 4.4609375 C-66.56445162 4.46595696 -68.03515488 4.47051909 -69.50585938 4.47460938 C-73.0976904 4.48559262 -76.6894598 4.50283328 -80.28125 4.5234375 Z M-28.28125 4.5234375 C-28.53915208 10.88502211 -28.23017495 16.37528737 -26.78125 22.5859375 C-24.42080614 32.85554635 -23.87982342 44.3070372 -29.09375 53.8359375 C-31.46634541 56.75084043 -33.87515562 59.63612424 -36.28125 62.5234375 C-30.67125 62.5234375 -25.06125 62.5234375 -19.28125 62.5234375 C-18.2495946 59.42249068 -17.23061805 56.31833718 -16.21875 53.2109375 C-15.92419922 52.32986328 -15.62964844 51.44878906 -15.32617188 50.54101562 C-15.05224609 49.69345703 -14.77832031 48.84589844 -14.49609375 47.97265625 C-14.23948975 47.19237061 -13.98288574 46.41208496 -13.71850586 45.6081543 C-13.06079459 43.3444103 -13.06079459 43.3444103 -14.28125 40.5234375 C-16.59125 41.1834375 -18.90125 41.8434375 -21.28125 42.5234375 C-21.00861328 41.47889404 -20.73597656 40.43435059 -20.45507812 39.3581543 C-19.4450619 35.48459078 -18.4398265 31.6098 -17.43603516 27.73461914 C-17.00081726 26.05719653 -16.56430141 24.38011013 -16.12646484 22.70336914 C-15.49756259 20.29400325 -14.87332923 17.8834691 -14.25 15.47265625 C-14.05313599 14.72255783 -13.85627197 13.97245941 -13.65344238 13.19963074 C-12.88838524 10.2253706 -12.28125 7.60838569 -12.28125 4.5234375 C-17.56125 4.5234375 -22.84125 4.5234375 -28.28125 4.5234375 Z M-9.28125 4.5234375 C-9.136875 7.1840625 -8.9925 9.8446875 -8.84375 12.5859375 C-8.80064697 13.409729 -8.75754395 14.23352051 -8.71313477 15.08227539 C-8.45646113 19.6139489 -7.98981424 24.03983352 -7.28125 28.5234375 C-3.98125 27.8634375 -0.68125 27.2034375 2.71875 26.5234375 C2.55503906 27.40128906 2.39132812 28.27914062 2.22265625 29.18359375 C1.38119381 35.07383083 1.61415476 41.02550917 1.65625 46.9609375 C1.66076172 48.16943359 1.66527344 49.37792969 1.66992188 50.62304688 C1.68164843 53.58986522 1.69958201 56.5566579 1.71875 59.5234375 C-1.91125 60.1834375 -5.54125 60.8434375 -9.28125 61.5234375 C-9.28125 61.8534375 -9.28125 62.1834375 -9.28125 62.5234375 C-0.37125 62.5234375 8.53875 62.5234375 17.71875 62.5234375 C14.63033985 43.13851644 11.54070684 23.78022005 7.71875 4.5234375 C2.10875 4.5234375 -3.50125 4.5234375 -9.28125 4.5234375 Z M15.71875 4.5234375 C14.91200187 24.55768285 17.96612558 42.94501305 21.71875 62.5234375 C26.33875 62.5234375 30.95875 62.5234375 35.71875 62.5234375 C36.45463298 58.10813961 36.83005367 54.54076739 36.78125 50.1484375 C36.77222656 49.08882813 36.76320313 48.02921875 36.75390625 46.9375 C36.74230469 46.14085937 36.73070312 45.34421875 36.71875 44.5234375 C37.70875 44.5234375 38.69875 44.5234375 39.71875 44.5234375 C39.83992188 45.23628906 39.96109375 45.94914062 40.0859375 46.68359375 C40.25351562 47.64136719 40.42109375 48.59914063 40.59375 49.5859375 C40.75617188 50.52566406 40.91859375 51.46539062 41.0859375 52.43359375 C41.78333906 55.83880753 42.76384806 59.18128069 43.71875 62.5234375 C51.30875 62.5234375 58.89875 62.5234375 66.71875 62.5234375 C65.96831847 56.04099939 65.96831847 56.04099939 64.4921875 49.9375 C59.63508449 33.34554013 59.63508449 33.34554013 61.71875 25.5234375 C61.90356934 24.82766602 62.08838867 24.13189453 62.27880859 23.41503906 C63.54103826 18.70747205 64.87079753 14.02466795 66.27563477 9.35766602 C66.83616301 7.35191775 66.83616301 7.35191775 66.71875 4.5234375 C59.45875 4.5234375 52.19875 4.5234375 44.71875 4.5234375 C43.89375 6.7921875 43.06875 9.0609375 42.21875 11.3984375 C41.95771484 12.11112793 41.69667969 12.82381836 41.42773438 13.55810547 C40.14713203 16.95441738 40.14713203 16.95441738 39.71875 20.5234375 C39.05875 20.1934375 38.39875 19.8634375 37.71875 19.5234375 C37.40533574 16.96585891 37.20646761 14.52699929 37.09375 11.9609375 C36.97 9.5065625 36.84625 7.0521875 36.71875 4.5234375 C29.78875 4.5234375 22.85875 4.5234375 15.71875 4.5234375 Z " fill="#020202" transform="translate(283.28125,227.4765625)"/>
<path d="M0 0 C3.80238142 2.24152732 7.00797002 5.01594004 9 9 C9.51592086 14.17612405 9.59738983 18.63098164 7.5 23.4375 C3.38398483 27.65641554 -0.66953516 29.66707645 -6.5 30.5 C-12.35394355 29.66372235 -16.41577404 27.66343725 -20.5 23.375 C-22.53041923 18.80655672 -22.68472024 14.92503592 -22 10 C-20.37776841 6.26886734 -18.05532814 3.67341212 -15 1 C-10.0327551 -0.6557483 -5.16499103 -0.82170312 0 0 Z M-14 7 C-14 7.33 -14 7.66 -14 8 C-9.05 8 -4.1 8 1 8 C-4.39258308 2.60741692 -7.72061796 3.92187155 -14 7 Z M2 9 C2 11.64 2 14.28 2 17 C-2.95 17.33 -7.9 17.66 -13 18 C-13 16.35 -13 14.7 -13 13 C-14.32 12.34 -15.64 11.68 -17 11 C-17.55575319 16.84507562 -17.55575319 16.84507562 -15 21.9375 C-11.27591873 24.49780587 -8.49365132 25.28195459 -4 25 C0.35323981 23.6858144 1.63913052 22.59769008 4 18.6875 C5.12170387 14.55121699 4.77382102 12.82771903 3 9 C2.67 9 2.34 9 2 9 Z " fill="#020202" transform="translate(375,202)"/>
<path d="M0 0 C1.32 0.66 2.64 1.32 4 2 C4.05789006 5.45826342 4.09355821 8.91640293 4.125 12.375 C4.14175781 13.35984375 4.15851563 14.3446875 4.17578125 15.359375 C4.18222656 16.30039062 4.18867188 17.24140625 4.1953125 18.2109375 C4.20578613 19.08024902 4.21625977 19.94956055 4.22705078 20.84521484 C4 23 4 23 2 25 C-0.0625 24.75 -0.0625 24.75 -2 24 C-3.76279117 20.47441767 -3.22713881 16.44604409 -3.25 12.5625 C-3.270625 11.69044922 -3.29125 10.81839844 -3.3125 9.91992188 C-3.31765625 9.08138672 -3.3228125 8.24285156 -3.328125 7.37890625 C-3.3374707 6.6113501 -3.34681641 5.84379395 -3.35644531 5.05297852 C-2.91341409 2.50130072 -1.96034922 1.62489012 0 0 Z " fill="#020202" transform="translate(179,248)"/>
<path d="M0 0 C4 1 4 1 5 2 C5.12658222 4.65822657 5.18520214 7.27887424 5.1875 9.9375 C5.19974609 10.67935547 5.21199219 11.42121094 5.22460938 12.18554688 C5.22988478 14.12513629 5.12188902 16.0642371 5 18 C4.34 18.66 3.68 19.32 3 20 C2.01 20 1.02 20 0 20 C0 13.4 0 6.8 0 0 Z " fill="#010101" transform="translate(226,251)"/>
</svg>
